<svg width="37.792603" height="59.012207" viewBox="0 0 37.7926 59.0122" fill="none" xmlns="http://www.w3.org/2000/svg" xmlns:xlink="http://www.w3.org/1999/xlink">
	<desc>
			Created with Pixso.
	</desc>
	<defs/>
	<path id="Vector" d="M23.62 41.49L37.79 32.78L18.46 0L0 11.35L17.4 40.86C13.25 41.97 10.34 46 10.69 50.51C11.06 55.34 15.03 59.01 19.68 59.01C19.92 59.01 20.16 59 20.41 58.98C25.37 58.58 29.09 54.12 28.7 49.05C28.43 45.68 26.41 42.87 23.62 41.49ZM17.79 2.74L35.1 32.1L21.14 40.68C20.61 40.59 20.06 40.55 19.51 40.56L2.68 12.03L17.79 2.74ZM20.25 56.99C16.36 57.3 12.95 54.33 12.64 50.35C12.33 46.38 15.24 42.9 19.13 42.58C19.32 42.56 19.51 42.56 19.7 42.56C21.38 42.56 22.99 43.16 24.28 44.29C25.72 45.54 26.6 47.29 26.75 49.21C27.06 53.18 24.14 56.67 20.25 56.99Z" fill="#AAAAAA" fill-opacity="1.000000" fill-rule="nonzero"/>
</svg>
