<svg width="50.657593" height="43.727051" viewBox="0 0 50.6576 43.7271" fill="none" xmlns="http://www.w3.org/2000/svg" xmlns:xlink="http://www.w3.org/1999/xlink">
	<desc>
			Created with Pixso.
	</desc>
	<defs/>
	<path id="Vector" d="M47.85 8.37L41.13 8.37L5.07 8.36C3.35 8.36 1.95 6.93 1.95 5.18C1.95 3.42 3.35 1.99 5.07 1.99L45.58 1.99L45.58 0L5.07 0C2.27 0 0 2.32 0 5.17L0 40.86C0 42.43 1.25 43.72 2.8 43.72L47.85 43.72C49.39 43.72 50.65 42.44 50.65 40.86L50.65 20.07L50.65 11.23C50.65 9.65 49.39 8.37 47.85 8.37ZM48.7 40.86C48.7 41.34 48.31 41.73 47.85 41.73L2.8 41.73C2.33 41.73 1.95 41.34 1.95 40.86L1.95 9.25C2.58 9.76 3.33 10.11 4.14 10.27L4.14 10.36L5.07 10.36L41.13 10.36L47.85 10.36C48.32 10.36 48.7 10.75 48.7 11.23L48.7 20.07L48.7 40.86Z" fill="#AAAAAA" fill-opacity="1.000000" fill-rule="nonzero"/>
</svg>
