<svg width="63.851334" height="50.271973" viewBox="0 0 63.8513 50.272" fill="none" xmlns="http://www.w3.org/2000/svg" xmlns:xlink="http://www.w3.org/1999/xlink">
	<desc>
			Created with Pixso.
	</desc>
	<defs/>
	<path id="Vector" d="M63.85 26.44C63.85 25.64 63.45 24.92 62.78 24.51L62.37 24.26C63.06 22.31 64.47 15.62 55.49 7.46C50.68 3.09 43.36 0.46 34.88 0.05C27.22 -0.32 19.27 1.14 13.07 4.05C5.33 7.68 0.32 13.63 0.01 19.59C-0.19 23.35 1.39 28.94 10.03 34.2C15.07 37.26 20.99 38.41 26.63 38.41C30.35 38.41 33.95 37.9 37.06 37.12L37.06 37.77L33.28 39.96C32.18 40.61 31.32 42.12 31.32 43.41C31.33 44.14 31.61 44.72 32.11 45.01C32.32 45.13 32.57 45.2 32.83 45.2C33.16 45.2 33.52 45.09 33.87 44.89L37.18 42.97C37.27 43.23 37.41 43.48 37.58 43.69C36.89 44.45 36.42 45.53 36.42 46.48C36.42 47.21 36.71 47.79 37.2 48.08C37.42 48.21 37.66 48.27 37.92 48.27C38.26 48.27 38.61 48.17 38.97 47.96L41.71 46.37L47.56 49.93C47.93 50.15 48.33 50.27 48.74 50.27C49.13 50.27 49.52 50.17 49.87 49.96C49.98 49.9 50.07 49.83 50.16 49.76L62.1 41.78C63.18 41.13 63.85 39.93 63.85 38.65L63.81 26.83C63.83 26.7 63.84 26.57 63.85 26.44ZM50.07 33.53C49.88 33.33 49.67 33.16 49.43 33.01L41.3 28.06L51.81 21.74C52.64 21.25 53.67 21.26 54.49 21.76L61.78 26.2C61.88 26.27 61.9 26.36 61.9 26.43C61.9 26.5 61.88 26.59 61.78 26.65L50.07 33.53ZM11.03 32.5C4.85 28.74 1.71 24.31 1.95 19.7C2.22 14.47 6.8 9.17 13.88 5.84C25.64 0.33 44.65 0.26 54.2 8.94C61.81 15.85 61.2 21.33 60.67 23.22L55.49 20.07C54.63 19.54 53.63 19.33 52.66 19.43C50.88 13.96 44.5 8.18 33.99 7.32C30.31 7.02 26.38 7.35 22.3 8.31C19.11 9.06 17.37 9.95 15.44 11.23L16.5 12.89C18.29 11.7 19.81 10.92 22.74 10.24C26.62 9.32 30.35 9 33.83 9.29C43.46 10.07 49.24 15.2 50.82 20.04L38.4 27.51C38.35 27.54 38.3 27.56 38.25 27.58C37.52 28 37.09 28.76 37.08 29.61L37.07 35.08C29.6 37.06 19.06 37.38 11.03 32.5ZM33.29 43.86C33.04 44 32.81 44.05 32.69 43.98C32.56 43.91 32.49 43.69 32.49 43.4C32.49 42.53 33.12 41.42 33.86 40.99L40.99 36.85L41 39.39L33.29 43.86ZM38.38 46.93C38.14 47.08 37.9 47.13 37.78 47.05C37.66 46.98 37.58 46.76 37.58 46.48C37.58 45.61 38.21 44.5 38.95 44.06L46.08 39.93L46.09 42.47L38.38 46.93ZM43.65 45.25L46.96 43.33C47.14 43.22 47.26 43.02 47.26 42.81L47.25 38.91C47.25 38.7 47.14 38.5 46.96 38.4C46.78 38.29 46.56 38.29 46.38 38.4L39.22 42.55L39.17 42.51C39.06 42.45 38.99 42.33 38.99 42.2L38.99 41.92L41.87 40.25C42.05 40.15 42.16 39.95 42.16 39.74L42.15 35.84C42.15 35.63 42.04 35.43 41.86 35.32C41.68 35.22 41.46 35.22 41.28 35.32L39.01 36.64L39.02 29.62C39.02 29.44 39.14 29.34 39.21 29.3C39.27 29.27 39.41 29.21 39.57 29.31L48.43 34.71C48.87 34.97 49.13 35.46 49.13 35.97L49.1 47.92C49.1 48.05 49.05 48.12 48.99 48.18L48.87 48.26C48.8 48.29 48.68 48.31 48.56 48.23L43.65 45.25ZM61.1 40.09L51.05 46.81L51.08 35.98C51.08 35.73 51.05 35.5 51 35.27L61.87 28.88L61.9 38.65C61.9 39.24 61.6 39.79 61.1 40.09Z" fill="#AAAAAA" fill-opacity="1.000000" fill-rule="nonzero"/>
</svg>
