<svg width="50.000000" height="50.000000" viewBox="0 0 50 50" fill="none" xmlns="http://www.w3.org/2000/svg" xmlns:xlink="http://www.w3.org/1999/xlink">
	<desc>
			Created with Pixso.
	</desc>
	<defs>
		<clipPath id="clip0_195">
			<rect id="Frame" rx="0.000000" width="49.000000" height="49.000000" transform="translate(0.500000 0.500000)" fill="white" fill-opacity="0"/>
		</clipPath>
	</defs>
	<g clip-path="url(#clip0_195)">
		<path id="Vector" d="M35.04 35.77C35.07 35.77 35.1 35.77 35.14 35.77L38.45 35.77C38.52 35.84 38.56 35.93 38.58 36.03C39.17 37.8 39.77 39.57 40.37 41.35L42.27 47C42.27 47.08 42.33 47.16 42.37 47.28C42.42 47.17 42.45 47.09 42.48 47.02L44.57 40.83L46.2 36C46.23 35.91 46.27 35.83 46.3 35.74L49.62 35.74L49.74 35.74C49.75 35.76 49.76 35.79 49.77 35.82C49.77 40.43 49.77 45.04 49.77 49.65C49.77 49.68 49.77 49.71 49.77 49.74C49.77 49.74 49.73 49.74 49.72 49.74L47.58 49.74L47.47 49.74C47.47 49.69 47.47 49.65 47.47 49.62C47.47 49.58 47.47 49.45 47.47 49.37C47.47 45.86 47.47 42.36 47.47 38.87C47.48 38.76 47.47 38.64 47.44 38.54C47.27 38.94 47.16 39.32 47.03 39.69C46.9 40.05 46.78 40.44 46.65 40.81C46.52 41.19 46.4 41.55 46.27 41.91C46.14 42.28 46.01 42.66 45.88 43.03L45.5 44.16C45.37 44.53 45.25 44.91 45.12 45.28C44.99 45.65 44.86 46.03 44.73 46.4C44.6 46.78 44.48 47.13 44.35 47.5C44.22 47.87 44.1 48.25 43.97 48.62C43.84 49 43.71 49.37 43.59 49.74C43.39 49.78 41.72 49.79 41.21 49.74C41.13 49.68 41.12 49.58 41.09 49.5L39.83 45.9L37.44 38.9C37.44 38.82 37.39 38.75 37.35 38.67C37.29 38.67 37.31 38.74 37.31 38.77C37.31 38.8 37.31 38.94 37.31 39.02L37.31 49.47C37.31 49.57 37.31 49.66 37.31 49.77C37.28 49.78 37.24 49.79 37.21 49.8L35.1 49.8L35.04 49.8C35.03 49.75 35.02 49.71 35.01 49.67C35.01 49.6 35.01 49.54 35.01 49.47L35.01 36.09C34.99 35.98 35 35.87 35.04 35.77Z" fill="#000000" fill-opacity="1.000000" fill-rule="nonzero"/>
		<path id="Vector" d="M14.09 42.65C14.11 43.9 13.84 45.13 13.3 46.25C12.88 47.12 12.28 47.88 11.53 48.49C10.79 49.09 9.92 49.52 8.99 49.75C8.11 49.98 7.2 50.06 6.29 49.96C5.43 49.89 4.58 49.66 3.8 49.28C3 48.9 2.29 48.35 1.71 47.69C1.13 47.02 0.69 46.24 0.42 45.4C0.1 44.47 -0.04 43.48 0 42.5C0.01 41.62 0.18 40.75 0.49 39.93C0.88 38.83 1.56 37.85 2.45 37.1C3.34 36.35 4.41 35.85 5.56 35.65C6.89 35.38 8.27 35.47 9.55 35.93C10.5 36.26 11.37 36.8 12.08 37.52C12.79 38.24 13.32 39.12 13.64 40.08C13.87 40.73 14 41.42 14.05 42.11C14.07 42.31 14.08 42.54 14.09 42.65ZM11.68 42.6C11.68 42.25 11.64 41.9 11.57 41.55C11.47 40.93 11.25 40.34 10.94 39.79C10.66 39.3 10.28 38.87 9.84 38.53C9.39 38.18 8.87 37.93 8.33 37.79C7.51 37.58 6.65 37.58 5.83 37.79C4.87 38.03 4.02 38.6 3.44 39.39C3.04 39.92 2.75 40.51 2.59 41.15C2.41 41.87 2.35 42.62 2.42 43.35C2.47 43.99 2.63 44.61 2.88 45.19C3.12 45.75 3.46 46.25 3.9 46.66C4.34 47.08 4.86 47.4 5.43 47.59C6.11 47.84 6.85 47.92 7.57 47.83C8.37 47.76 9.14 47.47 9.79 46.99C10.43 46.5 10.93 45.85 11.23 45.1C11.55 44.31 11.7 43.46 11.68 42.6Z" fill="#000000" fill-opacity="1.000000" fill-rule="nonzero"/>
		<path id="Vector" d="M50 7.14C50.02 8.31 49.79 9.46 49.32 10.53C48.91 11.48 48.27 12.32 47.46 12.98C46.66 13.63 45.71 14.09 44.69 14.31C43.31 14.65 41.85 14.58 40.5 14.11C39.53 13.79 38.64 13.24 37.91 12.51C37.18 11.78 36.64 10.88 36.32 9.9C36.02 8.99 35.88 8.04 35.92 7.08C35.93 6.22 36.08 5.37 36.36 4.56C36.74 3.43 37.41 2.43 38.3 1.66C39.19 0.88 40.28 0.36 41.44 0.15C42.77 -0.13 44.15 -0.04 45.43 0.41C46.39 0.73 47.26 1.28 47.98 2C48.69 2.72 49.23 3.6 49.55 4.56C49.78 5.2 49.92 5.88 49.96 6.56C49.98 6.79 49.99 7.03 50 7.14ZM47.6 7.27C47.6 7 47.57 6.72 47.54 6.45C47.47 5.79 47.29 5.15 46.99 4.56C46.73 4.04 46.37 3.57 45.93 3.18C45.48 2.8 44.96 2.52 44.4 2.35C43.7 2.13 42.95 2.07 42.23 2.18C41.13 2.31 40.14 2.87 39.45 3.72C38.94 4.35 38.6 5.09 38.45 5.87C38.3 6.55 38.27 7.25 38.34 7.94C38.41 8.62 38.6 9.29 38.91 9.91C39.38 10.9 40.22 11.68 41.25 12.06C41.94 12.33 42.69 12.43 43.43 12.35C44.09 12.3 44.73 12.1 45.3 11.78C46.17 11.26 46.83 10.45 47.18 9.5C47.45 8.78 47.59 8.03 47.6 7.27Z" fill="#000000" fill-opacity="1.000000" fill-rule="nonzero"/>
		<path id="Vector" d="M8.26 8L8.5 8.1C9.16 8.38 9.69 8.9 9.97 9.56C10.12 9.89 10.24 10.23 10.31 10.59C10.55 11.73 10.8 12.87 11.04 14C11.04 14.09 11.07 14.17 11.09 14.28C11.05 14.29 11 14.3 10.96 14.31L8.77 14.31L8.7 14.31C8.7 14.25 8.65 14.19 8.64 14.14C8.44 13.18 8.24 12.23 8.03 11.29C7.98 11.04 7.91 10.79 7.85 10.56C7.83 10.51 7.81 10.46 7.79 10.41C7.65 9.98 7.39 9.61 7.05 9.33C6.7 9.05 6.28 8.87 5.84 8.83C5.57 8.79 5.3 8.77 5.03 8.77L2.96 8.77C2.87 8.75 2.79 8.76 2.71 8.81C2.68 9.06 2.71 9.31 2.71 9.58L2.71 14.29C2.67 14.3 2.62 14.31 2.58 14.31L0.44 14.31C0.4 14.32 0.37 14.32 0.33 14.31L0.33 14.17C0.33 14.12 0.33 14.07 0.33 14.02L0.33 0.58C0.33 0.48 0.33 0.39 0.33 0.28C0.4 0.28 0.47 0.28 0.54 0.28L6.18 0.28C6.84 0.27 7.5 0.37 8.12 0.58C8.49 0.7 8.84 0.86 9.17 1.08C9.89 1.55 10.43 2.27 10.66 3.1C10.89 3.89 10.89 4.72 10.66 5.5C10.53 5.98 10.3 6.43 9.98 6.82C9.67 7.21 9.27 7.52 8.83 7.75C8.74 7.8 8.65 7.84 8.56 7.89L8.26 8ZM2.71 6.66L6.34 6.66C6.6 6.64 6.86 6.59 7.11 6.5C7.41 6.39 7.68 6.2 7.9 5.96C8.12 5.72 8.27 5.43 8.35 5.12C8.41 4.87 8.43 4.61 8.41 4.36C8.39 3.97 8.26 3.6 8.03 3.28C7.8 2.96 7.48 2.72 7.12 2.58C6.83 2.47 6.52 2.4 6.21 2.4L2.99 2.4C2.9 2.38 2.81 2.39 2.73 2.43C2.7 2.67 2.68 4.93 2.73 6.46C2.69 6.5 2.7 6.56 2.71 6.66Z" fill="#000000" fill-opacity="1.000000" fill-rule="nonzero"/>
	</g>
</svg>
