<svg width="20.000000" height="24.000000" viewBox="0 0 20 24" fill="none" xmlns="http://www.w3.org/2000/svg" xmlns:xlink="http://www.w3.org/1999/xlink">
	<desc>
			Created with Pixso.
	</desc>
	<defs>
		<clipPath id="clip0_192">
			<rect id="Frame" rx="0.000000" width="19.000000" height="23.000000" transform="translate(0.500000 0.500000)" fill="white" fill-opacity="0"/>
		</clipPath>
	</defs>
	<g clip-path="url(#clip0_192)">
		<path id="Vector" d="M0.98 9.11C0.98 4.08 5.06 0 10.08 0C15.09 0 19.17 4.08 19.17 9.11C19.17 12.78 16.55 16.09 14.37 18.85L10.5 23.78C10.25 24.03 9.9 24.09 9.66 23.79C9.24 23.26 8.83 22.72 8.41 22.17C7.55 21.04 6.67 19.89 5.78 18.84L5.78 18.84C3.59 16.08 0.98 12.78 0.98 9.11ZM18.1 9.11C18.1 4.66 14.51 1.06 10.08 1.06C5.64 1.06 2.05 4.66 2.05 9.11C2.05 12.41 4.53 15.55 6.61 18.18L6.61 18.18C7.34 19.16 8.11 20.13 8.89 21.1C9.29 21.6 9.68 22.1 10.08 22.6L13.54 18.19L13.54 18.19C15.62 15.56 18.1 12.41 18.1 9.11Z" fill="#000000" fill-opacity="1.000000" fill-rule="evenodd"/>
		<path id="Vector" d="M6.18 8.88C6.18 6.43 8.12 4.44 10.51 4.44C12.9 4.44 14.84 6.43 14.84 8.88C14.84 11.34 12.9 13.33 10.51 13.33C8.12 13.33 6.18 11.34 6.18 8.88ZM13.83 8.88C13.83 7 12.34 5.48 10.51 5.48C8.67 5.48 7.19 7 7.19 8.88C7.19 10.77 8.68 12.29 10.51 12.29C12.34 12.29 13.83 10.77 13.83 8.88Z" fill="#000000" fill-opacity="1.000000" fill-rule="evenodd"/>
	</g>
</svg>
