<svg width="25.000000" height="25.000000" viewBox="0 0 25 25" fill="none" xmlns="http://www.w3.org/2000/svg" xmlns:xlink="http://www.w3.org/1999/xlink">
	<desc>
			Created with Pixso.
	</desc>
	<defs>
		<clipPath id="clip0_182">
			<rect id="Frame" rx="0.000000" width="24.000000" height="24.000000" transform="translate(0.500000 0.500000)" fill="white" fill-opacity="0"/>
		</clipPath>
	</defs>
	<rect id="Frame" rx="0.000000" width="24.000000" height="24.000000" transform="translate(0.500000 0.500000)" fill="#FFFFFF" fill-opacity="0"/>
	<g clip-path="url(#clip0_182)">
		<path id="Vector" d="M0.01 0.72C0.01 1.13 0.27 1.45 0.61 1.45L2.71 1.45C3.47 1.45 4.11 2.01 4.36 2.89L7.54 14.47L5.73 19.96C5.57 20.45 5.87 20.95 6.28 20.96L19.53 20.96C19.86 20.96 20.13 20.64 20.13 20.23C20.13 19.83 19.86 19.5 19.53 19.5L7.17 19.5L8.58 15.22L19.53 15.22C19.8 15.22 20.02 15.02 20.1 14.73L23.87 4.46C24.05 3.97 23.74 3.46 23.32 3.44L5.77 3.44L5.49 2.43C5.09 0.96 3.99 0 2.71 0L0.61 0C0.27 0 0.01 0.32 0.01 0.72ZM8.61 13.77L6.17 4.9L22.4 4.9L19.14 13.77L8.61 13.77Z" fill="#1A1A1A" fill-opacity="1.000000" fill-rule="evenodd"/>
		<path id="Vector" d="M7.52 21.77C8.28 21.77 8.89 22.49 8.89 23.38C8.89 24.27 8.28 25 7.52 25C6.77 25 6.16 24.27 6.16 23.38C6.16 22.49 6.77 21.77 7.52 21.77Z" fill="#1A1A1A" fill-opacity="1.000000" fill-rule="evenodd"/>
		<path id="Vector" d="M18.45 21.77C19.21 21.77 19.82 22.49 19.82 23.38C19.82 24.27 19.21 25 18.45 25C17.7 25 17.09 24.27 17.09 23.38C17.09 22.49 17.7 21.77 18.45 21.77Z" fill="#1A1A1A" fill-opacity="1.000000" fill-rule="evenodd"/>
	</g>
</svg>
